{
  "accessors": [
    {
      "bufferView": 2,
      "componentType": 5126,
      "count": 3382,
      "max": [
        1.332123041152954,
        7.8951311111450195,
        16.178359985351563
      ],
      "min": [
        -1.3321239948272705,
        5.2308831214904785,
        1.8889039754867554
      ],
      "type": "VEC3"
    },
    {
      "bufferView": 2,
      "byteOffset": 40584,
      "componentType": 5126,
      "count": 3382,
      "max": [
        1.0,
        1.0,
        1.0
      ],
      "min": [
        -1.0,
        -1.0,
        -1.0
      ],
      "type": "VEC3"
    },
    {
      "bufferView": 3,
      "componentType": 5126,
      "count": 3382,
      "max": [
        1.0,
        1.0,
        1.0,
        1.0
      ],
      "min": [
        -1.0,
        -1.0,
        -1.0,
        -1.0
      ],
      "type": "VEC4"
    },
    {
      "bufferView": 1,
      "componentType": 5126,
      "count": 3382,
      "max": [
        0.9950000047683716,
        0.9119319915771484
      ],
      "min": [
        0.004999999888241291,
        0.004999999888241291
      ],
      "type": "VEC2"
    },
    {
      "bufferView": 0,
      "componentType": 5125,
      "count": 13767,
      "type": "SCALAR"
    },
    {
      "bufferView": 2,
      "byteOffset": 81168,
      "componentType": 5126,
      "count": 240,
      "max": [
        0.7459269762039185,
        7.319282054901123,
        10.728857040405273
      ],
      "min": [
        -0.7666230201721191,
        5.806731224060059,
        5.781120777130127
      ],
      "type": "VEC3"
    },
    {
      "bufferView": 2,
      "byteOffset": 84048,
      "componentType": 5126,
      "count": 240,
      "max": [
        1.0,
        1.0,
        0.8808977007865906
      ],
      "min": [
        -1.0,
        -1.0,
        -0.0019900009501725435
      ],
      "type": "VEC3"
    },
    {
      "bufferView": 3,
      "byteOffset": 54112,
      "componentType": 5126,
      "count": 240,
      "max": [
        1.0,
        0.7071062922477722,
        1.0,
        1.0
      ],
      "min": [
        -1.0,
        -0.8090192675590515,
        -1.0,
        -1.0
      ],
      "type": "VEC4"
    },
    {
      "bufferView": 1,
      "byteOffset": 27056,
      "componentType": 5126,
      "count": 240,
      "max": [
        0.6094880104064941,
        0.5838649868965149
      ],
      "min": [
        0.004999999888241291,
        0.004999999888241291
      ],
      "type": "VEC2"
    },
    {
      "bufferView": 0,
      "byteOffset": 55068,
      "componentType": 5125,
      "count": 780,
      "type": "SCALAR"
    }
  ],
  "asset": {
    "extras": {
      "author": "Itz_EthanNC (https://sketchfab.com/Itz_Ethan)",
      "license": "CC-BY-4.0 (http://creativecommons.org/licenses/by/4.0/)",
      "source": "https://sketchfab.com/3d-models/low-poly-radioactive-needle-825fad281d764076852e35c6474349a5",
      "title": "Low Poly Radioactive Needle"
    },
    "generator": "Sketchfab-12.68.0",
    "version": "2.0"
  },
  "bufferViews": [
    {
      "buffer": 0,
      "byteLength": 58188,
      "name": "floatBufferViews",
      "target": 34963
    },
    {
      "buffer": 0,
      "byteLength": 28976,
      "byteOffset": 58188,
      "byteStride": 8,
      "name": "floatBufferViews",
      "target": 34962
    },
    {
      "buffer": 0,
      "byteLength": 86928,
      "byteOffset": 87164,
      "byteStride": 12,
      "name": "floatBufferViews",
      "target": 34962
    },
    {
      "buffer": 0,
      "byteLength": 57952,
      "byteOffset": 174092,
      "byteStride": 16,
      "name": "floatBufferViews",
      "target": 34962
    }
  ],
  "buffers": [
    {
      "byteLength": 232044,
      "uri": "scene.bin"
    }
  ],
  "extensionsUsed": [
    "KHR_materials_transmission"
  ],
  "images": [
    {
      "uri": "textures/NeedleAfterCoatinitialShadingGroup_baseColor.png"
    },
    {
      "uri": "textures/NeedleAfterCoatinitialShadingGroup_metallicRoughness.png"
    },
    {
      "uri": "textures/NeedleAfterCoatinitialShadingGroup_normal.png"
    },
    {
      "uri": "textures/phong1SG_baseColor.png"
    },
    {
      "uri": "textures/phong1SG_transmission.png"
    }
  ],
  "materials": [
    {
      "doubleSided": true,
      "name": "NeedleAfterCoatinitialShadingGroup",
      "normalTexture": {
        "index": 2
      },
      "occlusionTexture": {
        "index": 1
      },
      "pbrMetallicRoughness": {
        "baseColorTexture": {
          "index": 0
        },
        "metallicRoughnessTexture": {
          "index": 1
        }
      }
    },
    {
      "alphaMode": "BLEND",
      "doubleSided": true,
      "emissiveFactor": [
        0.002739550254159543,
        1.0,
        0.0
      ],
      "extensions": {
        "KHR_materials_transmission": {
          "transmissionFactor": 1.0,
          "transmissionTexture": {
            "index": 4
          }
        }
      },
      "name": "phong1SG",
      "normalTexture": {
        "index": 2
      },
      "occlusionTexture": {
        "index": 1
      },
      "pbrMetallicRoughness": {
        "baseColorTexture": {
          "index": 3
        },
        "metallicRoughnessTexture": {
          "index": 1
        }
      }
    }
  ],
  "meshes": [
    {
      "name": "Object_0",
      "primitives": [
        {
          "attributes": {
            "NORMAL": 1,
            "POSITION": 0,
            "TANGENT": 2,
            "TEXCOORD_0": 3
          },
          "indices": 4,
          "material": 0,
          "mode": 4
        }
      ]
    },
    {
      "name": "Object_1",
      "primitives": [
        {
          "attributes": {
            "NORMAL": 6,
            "POSITION": 5,
            "TANGENT": 7,
            "TEXCOORD_0": 8
          },
          "indices": 9,
          "material": 1,
          "mode": 4
        }
      ]
    }
  ],
  "nodes": [
    {
      "children": [
        1
      ],
      "matrix": [
        0.004988705710625152,
        -0.012580758976480644,
        -2.7934896565896858e-18,
        0.0,
        0.0,
        3.005098568544162e-18,
        -0.0135337607935071,
        0.0,
        0.012580758976480644,
        0.004988705710625152,
        1.1077151886030094e-18,
        0.0,
        -8.397510528564453,
        5.703728675842285,
        1.2664821804269722e-15,
        1.0
      ],
      "name": "Sketchfab_model"
    },
    {
      "children": [
        2,
        3
      ],
      "name": "d134120ffc8f43299980950d9bd4e653.obj.cleaner.materialmerger.gles"
    },
    {
      "mesh": 0,
      "name": "Object_2"
    },
    {
      "mesh": 1,
      "name": "Object_3"
    }
  ],
  "samplers": [
    {
      "magFilter": 9729,
      "minFilter": 9987,
      "wrapS": 10497,
      "wrapT": 10497
    }
  ],
  "scene": 0,
  "scenes": [
    {
      "name": "Sketchfab_Scene",
      "nodes": [
        0
      ]
    }
  ],
  "textures": [
    {
      "sampler": 0,
      "source": 0
    },
    {
      "sampler": 0,
      "source": 1
    },
    {
      "sampler": 0,
      "source": 2
    },
    {
      "sampler": 0,
      "source": 3
    },
    {
      "sampler": 0,
      "source": 4
    }
  ]
}
