{
  "accessors": [
    {
      "bufferView": 1,
      "componentType": 5126,
      "count": 3922,
      "max": [
        23.581758499145508,
        19.26363754272461,
        12.807546615600586
      ],
      "min": [
        -10.024017333984375,
        -19.31132698059082,
        -21.19245147705078
      ],
      "type": "VEC3"
    },
    {
      "bufferView": 1,
      "byteOffset": 47064,
      "componentType": 5126,
      "count": 3922,
      "max": [
        0.9999814629554749,
        0.9996435642242432,
        1.0
      ],
      "min": [
        -0.9999998807907104,
        -0.9996441006660461,
        -0.999986469745636
      ],
      "type": "VEC3"
    },
    {
      "bufferView": 0,
      "componentType": 5125,
      "count": 22554,
      "type": "SCALAR"
    },
    {
      "bufferView": 1,
      "byteOffset": 94128,
      "componentType": 5126,
      "count": 2768,
      "max": [
        -1.8659391403198242,
        3.0526161193847656,
        3.907573699951172
      ],
      "min": [
        -3.7342047691345215,
        -3.100200653076172,
        -2.1924514770507813
      ],
      "type": "VEC3"
    },
    {
      "bufferView": 1,
      "byteOffset": 127344,
      "componentType": 5126,
      "count": 2768,
      "max": [
        0.8534243106842041,
        0.9996875524520874,
        0.999998927116394
      ],
      "min": [
        -0.9995499849319458,
        -0.9999976754188538,
        -1.0
      ],
      "type": "VEC3"
    },
    {
      "bufferView": 0,
      "byteOffset": 90216,
      "componentType": 5125,
      "count": 14925,
      "type": "SCALAR"
    }
  ],
  "asset": {
    "extras": {
      "author": "Sofia Echeverri (https://sketchfab.com/sofiaecheverri)",
      "license": "CC-BY-SA-4.0 (http://creativecommons.org/licenses/by-sa/4.0/)",
      "source": "https://sketchfab.com/3d-models/banana-peel-c05c98f523df45b78d50913b4917e9fe",
      "title": "Banana Peel"
    },
    "generator": "Sketchfab-12.68.0",
    "version": "2.0"
  },
  "bufferViews": [
    {
      "buffer": 0,
      "byteLength": 149916,
      "name": "floatBufferViews",
      "target": 34963
    },
    {
      "buffer": 0,
      "byteLength": 160560,
      "byteOffset": 149916,
      "byteStride": 12,
      "name": "floatBufferViews",
      "target": 34962
    }
  ],
  "buffers": [
    {
      "byteLength": 310476,
      "uri": "scene.bin"
    }
  ],
  "materials": [
    {
      "doubleSided": true,
      "name": "Yellow",
      "pbrMetallicRoughness": {
        "baseColorFactor": [
          1.0,
          0.662745,
          0.0117647,
          1.0
        ],
        "metallicFactor": 0.0,
        "roughnessFactor": 0.8929713596497552
      }
    },
    {
      "doubleSided": true,
      "name": "Black",
      "pbrMetallicRoughness": {
        "baseColorFactor": [
          0.0,
          0.0,
          0.0,
          1.0
        ],
        "metallicFactor": 0.0,
        "roughnessFactor": 0.8929713596497552
      }
    }
  ],
  "meshes": [
    {
      "name": "banana_Yellow_0",
      "primitives": [
        {
          "attributes": {
            "NORMAL": 1,
            "POSITION": 0
          },
          "indices": 2,
          "material": 0,
          "mode": 4
        }
      ]
    },
    {
      "name": "Object002_Black_0",
      "primitives": [
        {
          "attributes": {
            "NORMAL": 4,
            "POSITION": 3
          },
          "indices": 5,
          "material": 1,
          "mode": 4
        }
      ]
    }
  ],
  "nodes": [
    {
      "children": [
        1
      ],
      "matrix": [
        1.0,
        0.0,
        0.0,
        0.0,
        0.0,
        2.220446049250313e-16,
        -1.0,
        0.0,
        0.0,
        1.0,
        2.220446049250313e-16,
        0.0,
        0.0,
        0.0,
        0.0,
        1.0
      ],
      "name": "Sketchfab_model"
    },
    {
      "children": [
        2
      ],
      "matrix": [
        0.009999999776482582,
        0.0,
        0.0,
        0.0,
        0.0,
        0.0,
        0.009999999776482582,
        0.0,
        0.0,
        -0.009999999776482582,
        0.0,
        0.0,
        0.0,
        0.0,
        0.0,
        1.0
      ],
      "name": "6de5d0d9747c4438a99de2e94a5c5f20.fbx"
    },
    {
      "children": [
        3,
        6
      ],
      "name": "RootNode"
    },
    {
      "children": [
        4
      ],
      "matrix": [
        1.0,
        0.0,
        0.0,
        0.0,
        0.0,
        1.5099580275013125e-07,
        0.9999999999999887,
        0.0,
        0.0,
        -0.9999999999999887,
        1.5099580275013125e-07,
        0.0,
        16.878005981445313,
        25.384944915771484,
        -19.411300659179688,
        1.0
      ],
      "name": "banana"
    },
    {
      "children": [
        5
      ],
      "matrix": [
        1.0,
        0.0,
        -0.0,
        0.0,
        0.0,
        1.0,
        0.0,
        0.0,
        0.0,
        0.0,
        1.0,
        0.0,
        -6.778871536254883,
        0.023845039308071136,
        4.192453384399414,
        1.0
      ],
      "name": "Object_4"
    },
    {
      "mesh": 0,
      "name": "banana_Yellow_0"
    },
    {
      "children": [
        7
      ],
      "matrix": [
        1.0,
        0.0,
        0.0,
        0.0,
        0.0,
        1.5099580275013125e-07,
        0.9999999999999887,
        0.0,
        0.0,
        -0.9999999999999887,
        1.5099580275013125e-07,
        0.0,
        7.299062728881836,
        20.334930419921875,
        -19.41124725341797,
        1.0
      ],
      "name": "Object002"
    },
    {
      "children": [
        8
      ],
      "matrix": [
        1.0,
        0.0,
        -0.0,
        0.0,
        0.0,
        1.0,
        0.0,
        0.0,
        0.0,
        0.0,
        1.0,
        0.0,
        2.8000717163085938,
        0.02379239723086357,
        -0.8575611114501953,
        1.0
      ],
      "name": "Object_7"
    },
    {
      "mesh": 1,
      "name": "Object002_Black_0"
    }
  ],
  "scene": 0,
  "scenes": [
    {
      "name": "Sketchfab_Scene",
      "nodes": [
        0
      ]
    }
  ]
}
