{
  "accessors": [
    {
      "bufferView": 2,
      "componentType": 5126,
      "count": 2332,
      "max": [
        1.123039960861206,
        0.33667001128196716,
        2.340369939804077
      ],
      "min": [
        -1.0,
        -0.3769499957561493,
        -1.0
      ],
      "type": "VEC3"
    },
    {
      "bufferView": 2,
      "byteOffset": 27984,
      "componentType": 5126,
      "count": 2332,
      "max": [
        1.0,
        1.0,
        1.0
      ],
      "min": [
        -1.0,
        -1.0,
        -1.0
      ],
      "type": "VEC3"
    },
    {
      "bufferView": 1,
      "componentType": 5126,
      "count": 2332,
      "max": [
        0.9875699877738953,
        0.9703099727630615
      ],
      "min": [
        0.015699999406933784,
        0.005609999876469374
      ],
      "type": "VEC2"
    },
    {
      "bufferView": 0,
      "componentType": 5125,
      "count": 5403,
      "type": "SCALAR"
    }
  ],
  "asset": {
    "extras": {
      "author": "VyrianStudios (https://sketchfab.com/vynatic)",
      "license": "CC-BY-4.0 (http://creativecommons.org/licenses/by/4.0/)",
      "source": "https://sketchfab.com/3d-models/handheld-transceiver-lowpoly-e098706085a44898abbd549693d12a64",
      "title": "Handheld Transceiver | LowPoly"
    },
    "generator": "Sketchfab-12.68.0",
    "version": "2.0"
  },
  "bufferViews": [
    {
      "buffer": 0,
      "byteLength": 21612,
      "name": "floatBufferViews",
      "target": 34963
    },
    {
      "buffer": 0,
      "byteLength": 18656,
      "byteOffset": 21612,
      "byteStride": 8,
      "name": "floatBufferViews",
      "target": 34962
    },
    {
      "buffer": 0,
      "byteLength": 55968,
      "byteOffset": 40268,
      "byteStride": 12,
      "name": "floatBufferViews",
      "target": 34962
    }
  ],
  "buffers": [
    {
      "byteLength": 96236,
      "uri": "scene.bin"
    }
  ],
  "extensionsRequired": [
    "KHR_materials_pbrSpecularGlossiness"
  ],
  "extensionsUsed": [
    "KHR_materials_pbrSpecularGlossiness"
  ],
  "images": [
    {
      "uri": "textures/DefaultTexture_diffuse.png"
    }
  ],
  "materials": [
    {
      "doubleSided": true,
      "extensions": {
        "KHR_materials_pbrSpecularGlossiness": {
          "diffuseFactor": [
            1.0,
            1.0,
            1.0,
            1.0
          ],
          "diffuseTexture": {
            "index": 0
          },
          "glossinessFactor": 0.0,
          "specularFactor": [
            0.0,
            0.0,
            0.0
          ]
        }
      },
      "name": "DefaultTexture"
    }
  ],
  "meshes": [
    {
      "name": "Cube_0",
      "primitives": [
        {
          "attributes": {
            "NORMAL": 1,
            "POSITION": 0,
            "TEXCOORD_0": 2
          },
          "indices": 3,
          "material": 0,
          "mode": 4
        }
      ]
    }
  ],
  "nodes": [
    {
      "children": [
        1
      ],
      "matrix": [
        5.152827050480482,
        -1.3380681342227689e-15,
        6.026123150681997,
        0.0,
        6.026123150681997,
        1.144157446670953e-15,
        -5.152827050480482,
        0.0,
        0.0,
        7.928794860839844,
        1.7605461224068017e-15,
        0.0,
        0.003544948063790798,
        5.196478889004597e-19,
        -0.002340286038815975,
        1.0
      ],
      "name": "Sketchfab_model"
    },
    {
      "children": [
        2
      ],
      "name": "Root"
    },
    {
      "children": [
        3
      ],
      "matrix": [
        0.07010000000000001,
        0.0,
        0.0,
        0.0,
        0.0,
        0.13294000000000003,
        0.0,
        0.0,
        0.0,
        0.0,
        0.13294000000000003,
        0.0,
        0.0,
        0.0,
        0.13228,
        1.0
      ],
      "name": "Cube"
    },
    {
      "mesh": 0,
      "name": "Cube_0"
    }
  ],
  "samplers": [
    {
      "magFilter": 9729,
      "minFilter": 9987,
      "wrapS": 10497,
      "wrapT": 10497
    }
  ],
  "scene": 0,
  "scenes": [
    {
      "name": "Sketchfab_Scene",
      "nodes": [
        0
      ]
    }
  ],
  "textures": [
    {
      "sampler": 0,
      "source": 0
    }
  ]
}
